{
  "accessors": [
    {
      "bufferView": 2,
      "componentType": 5126,
      "count": 2207,
      "max": [
        0.78545302152633667,
        0.78545200824737549,
        8.8516750335693359
      ],
      "min": [
        -0.78545200824737549,
        -0.78545302152633667,
        3.6725120544433594
      ],
      "type": "VEC3"
    },
    {
      "bufferView": 2,
      "byteOffset": 26484,
      "componentType": 5126,
      "count": 2207,
      "max": [
        1,
        1,
        1
      ],
      "min": [
        -1,
        -1,
        -0.99997514486312866
      ],
      "type": "VEC3"
    },
    {
      "bufferView": 3,
      "componentType": 5126,
      "count": 2207,
      "max": [
        1,
        0.99999481439590454,
        0.99987518787384033,
        1
      ],
      "min": [
        -1,
        -0.9999963641166687,
        -0.99998492002487183,
        -1
      ],
      "type": "VEC4"
    },
    {
      "bufferView": 0,
      "componentType": 5125,
      "count": 12048,
      "max": [
        2206
      ],
      "min": [
        0
      ],
      "type": "SCALAR"
    },
    {
      "bufferView": 2,
      "byteOffset": 52968,
      "componentType": 5126,
      "count": 2659,
      "max": [
        0.88419002294540405,
        0.88418900966644287,
        8.8516750335693359
      ],
      "min": [
        -0.88418900966644287,
        -0.88419002294540405,
        3.6725120544433594
      ],
      "type": "VEC3"
    },
    {
      "bufferView": 2,
      "byteOffset": 84876,
      "componentType": 5126,
      "count": 2659,
      "max": [
        1,
        1,
        1
      ],
      "min": [
        -1,
        -1,
        -1
      ],
      "type": "VEC3"
    },
    {
      "bufferView": 3,
      "byteOffset": 35312,
      "componentType": 5126,
      "count": 2659,
      "max": [
        1,
        1,
        1,
        1
      ],
      "min": [
        -0.99985587596893311,
        -0.99999892711639404,
        -0.99337071180343628,
        -1
      ],
      "type": "VEC4"
    },
    {
      "bufferView": 0,
      "byteOffset": 48192,
      "componentType": 5125,
      "count": 14064,
      "max": [
        2658
      ],
      "min": [
        0
      ],
      "type": "SCALAR"
    },
    {
      "bufferView": 2,
      "byteOffset": 116784,
      "componentType": 5126,
      "count": 6466,
      "max": [
        4.4065489768981934,
        4.4065489768981934,
        14.998957633972168
      ],
      "min": [
        -4.4065489768981934,
        -4.4065489768981934,
        4.0849180221557617
      ],
      "type": "VEC3"
    },
    {
      "bufferView": 2,
      "byteOffset": 194376,
      "componentType": 5126,
      "count": 6466,
      "max": [
        0.99994248151779175,
        0.99994248151779175,
        1
      ],
      "min": [
        -0.99994254112243652,
        -0.99994248151779175,
        -1
      ],
      "type": "VEC3"
    },
    {
      "bufferView": 3,
      "byteOffset": 77856,
      "componentType": 5126,
      "count": 6466,
      "max": [
        0.96834921836853027,
        0.98575121164321899,
        0.99988806247711182,
        1
      ],
      "min": [
        -0.99722427129745483,
        -0.96041625738143921,
        -0.99979740381240845,
        1
      ],
      "type": "VEC4"
    },
    {
      "bufferView": 0,
      "byteOffset": 104448,
      "componentType": 5125,
      "count": 38400,
      "max": [
        6465
      ],
      "min": [
        0
      ],
      "type": "SCALAR"
    },
    {
      "bufferView": 2,
      "byteOffset": 271968,
      "componentType": 5126,
      "count": 752,
      "max": [
        0.95645302534103394,
        0.14836399257183075,
        11.034517288208008
      ],
      "min": [
        -0.95645302534103394,
        -0.13897000253200531,
        8.8232240676879883
      ],
      "type": "VEC3"
    },
    {
      "bufferView": 2,
      "byteOffset": 280992,
      "componentType": 5126,
      "count": 752,
      "max": [
        0.98114323616027832,
        0.99999666213989258,
        0.9600752592086792
      ],
      "min": [
        -0.98114335536956787,
        -0.99999910593032837,
        -0.96145188808441162
      ],
      "type": "VEC3"
    },
    {
      "bufferView": 1,
      "componentType": 5126,
      "count": 752,
      "max": [
        0,
        0
      ],
      "min": [
        0,
        0
      ],
      "type": "VEC2"
    },
    {
      "bufferView": 0,
      "byteOffset": 258048,
      "componentType": 5125,
      "count": 3936,
      "max": [
        751
      ],
      "min": [
        0
      ],
      "type": "SCALAR"
    },
    {
      "bufferView": 2,
      "byteOffset": 290016,
      "componentType": 5126,
      "count": 7,
      "max": [
        0.3456990122795105,
        1.7132560014724731,
        1.2355309724807739
      ],
      "min": [
        -0.40578100085258484,
        1.6125509738922119,
        1.141603946685791
      ],
      "type": "VEC3"
    },
    {
      "bufferView": 2,
      "byteOffset": 290100,
      "componentType": 5126,
      "count": 7,
      "max": [
        0.046261001378297806,
        0.99392533302307129,
        0.47520500421524048
      ],
      "min": [
        -0.29045701026916504,
        0.83055102825164795,
        -0.54132801294326782
      ],
      "type": "VEC3"
    },
    {
      "bufferView": 3,
      "byteOffset": 181312,
      "componentType": 5126,
      "count": 7,
      "max": [
        0.88274145126342773,
        0.20506805181503296,
        0.50272452831268311,
        1
      ],
      "min": [
        0.80346506834030151,
        -0.32537129521369934,
        -0.59056746959686279,
        1
      ],
      "type": "VEC4"
    },
    {
      "bufferView": 1,
      "byteOffset": 6016,
      "componentType": 5126,
      "count": 7,
      "max": [
        0.34282898902893066,
        0.50521397590637207
      ],
      "min": [
        0.058984000235795975,
        0.48845499753952026
      ],
      "type": "VEC2"
    },
    {
      "bufferView": 0,
      "byteOffset": 273792,
      "componentType": 5125,
      "count": 9,
      "max": [
        6
      ],
      "min": [
        0
      ],
      "type": "SCALAR"
    },
    {
      "bufferView": 2,
      "byteOffset": 290184,
      "componentType": 5126,
      "count": 45453,
      "max": [
        2.0098199844360352,
        1.9589040279388428,
        10.79655647277832
      ],
      "min": [
        -1.9949189424514771,
        -1.9589049816131592,
        0
      ],
      "type": "VEC3"
    },
    {
      "bufferView": 2,
      "byteOffset": 835620,
      "componentType": 5126,
      "count": 45453,
      "max": [
        1,
        1,
        1
      ],
      "min": [
        -1,
        -1,
        -1
      ],
      "type": "VEC3"
    },
    {
      "bufferView": 3,
      "byteOffset": 181424,
      "componentType": 5126,
      "count": 45453,
      "max": [
        0.99996864795684814,
        0.99996364116668701,
        0.99618500471115112,
        1
      ],
      "min": [
        -0.99991893768310547,
        -0.99994659423828125,
        -0.99564510583877563,
        1
      ],
      "type": "VEC4"
    },
    {
      "bufferView": 1,
      "byteOffset": 6072,
      "componentType": 5126,
      "count": 45453,
      "max": [
        1.478950023651123,
        0.98206198215484619
      ],
      "min": [
        0,
        0
      ],
      "type": "VEC2"
    },
    {
      "bufferView": 0,
      "byteOffset": 273828,
      "componentType": 5125,
      "count": 249519,
      "max": [
        45452
      ],
      "min": [
        0
      ],
      "type": "SCALAR"
    },
    {
      "bufferView": 2,
      "byteOffset": 1381056,
      "componentType": 5126,
      "count": 1052,
      "max": [
        2.0219109058380127,
        0.11463599652051926,
        10.577210426330566
      ],
      "min": [
        -2.0219109058380127,
        -0.027396000921726227,
        3.4900040626525879
      ],
      "type": "VEC3"
    },
    {
      "bufferView": 2,
      "byteOffset": 1393680,
      "componentType": 5126,
      "count": 1052,
      "max": [
        0.99991863965988159,
        1,
        0.98879235982894897
      ],
      "min": [
        -0.99991863965988159,
        -0.99999922513961792,
        -0.99970561265945435
      ],
      "type": "VEC3"
    },
    {
      "bufferView": 3,
      "byteOffset": 908672,
      "componentType": 5126,
      "count": 1052,
      "max": [
        0.9999995231628418,
        0.92871344089508057,
        0.99998724460601807,
        1
      ],
      "min": [
        -0.91829180717468262,
        -1,
        -1,
        -1
      ],
      "type": "VEC4"
    },
    {
      "bufferView": 1,
      "byteOffset": 369696,
      "componentType": 5126,
      "count": 1052,
      "max": [
        0.98711097240447998,
        0.92430800199508667
      ],
      "min": [
        0.75862801074981689,
        0.012702000327408314
      ],
      "type": "VEC2"
    },
    {
      "bufferView": 0,
      "byteOffset": 1271904,
      "componentType": 5125,
      "count": 4284,
      "max": [
        1051
      ],
      "min": [
        0
      ],
      "type": "SCALAR"
    }
  ],
  "asset": {
    "extras": {
      "author": "cjohn259 (https://sketchfab.com/cjohn259)",
      "license": "CC-BY-4.0 (http://creativecommons.org/licenses/by/4.0/)",
      "source": "https://sketchfab.com/models/0a65b026f0a6425b88e62570a7f106d9",
      "title": "Light Bulb"
    },
    "generator": "Sketchfab-3.22.5",
    "version": "2.0"
  },
  "bufferViews": [
    {
      "buffer": 0,
      "byteLength": 1289040,
      "byteOffset": 0,
      "name": "floatBufferViews",
      "target": 34963
    },
    {
      "buffer": 0,
      "byteLength": 378112,
      "byteOffset": 1289040,
      "byteStride": 8,
      "name": "floatBufferViews",
      "target": 34962
    },
    {
      "buffer": 0,
      "byteLength": 1406304,
      "byteOffset": 1667152,
      "byteStride": 12,
      "name": "floatBufferViews",
      "target": 34962
    },
    {
      "buffer": 0,
      "byteLength": 925504,
      "byteOffset": 3073456,
      "byteStride": 16,
      "name": "floatBufferViews",
      "target": 34962
    }
  ],
  "buffers": [
    {
      "byteLength": 3998960,
      "uri": "scene.bin"
    }
  ],
  "images": [
    {
      "uri": "a_light_bulb_206_light_Mat_normal.png"
    },
    {
      "uri": "a_light_bulb_206_light_Mat_metallicRoughness.png"
    },
    {
      "uri": "a_light_bulb_206_light_Mat_baseColor.png"
    }
  ],
  "materials": [
    {
      "doubleSided": true,
      "emissiveFactor": [
        0,
        0,
        0
      ],
      "name": "a_light_bulb_205_Mat_glass",
      "pbrMetallicRoughness": {
        "baseColorFactor": [
          1,
          1,
          1,
          1
        ],
        "metallicFactor": 0,
        "roughnessFactor": 0.59999999999999998
      }
    },
    {
      "doubleSided": true,
      "emissiveFactor": [
        0,
        0,
        0
      ],
      "name": "a_light_bulb_206_light_Mat",
      "normalTexture": {
        "index": 0,
        "scale": 1,
        "texCoord": 0
      },
      "pbrMetallicRoughness": {
        "baseColorFactor": [
          1,
          1,
          1,
          1
        ],
        "baseColorTexture": {
          "index": 2,
          "texCoord": 0
        },
        "metallicFactor": 1,
        "metallicRoughnessTexture": {
          "index": 1,
          "texCoord": 0
        },
        "roughnessFactor": 1
      }
    }
  ],
  "meshes": [
    {
      "primitives": [
        {
          "attributes": {
            "NORMAL": 1,
            "POSITION": 0,
            "TANGENT": 2
          },
          "indices": 3,
          "material": 0,
          "mode": 4
        }
      ]
    },
    {
      "primitives": [
        {
          "attributes": {
            "NORMAL": 5,
            "POSITION": 4,
            "TANGENT": 6
          },
          "indices": 7,
          "material": 0,
          "mode": 4
        }
      ]
    },
    {
      "primitives": [
        {
          "attributes": {
            "NORMAL": 9,
            "POSITION": 8,
            "TANGENT": 10
          },
          "indices": 11,
          "material": 0,
          "mode": 4
        }
      ]
    },
    {
      "primitives": [
        {
          "attributes": {
            "NORMAL": 13,
            "POSITION": 12,
            "TEXCOORD_0": 14
          },
          "indices": 15,
          "material": 1,
          "mode": 4
        }
      ]
    },
    {
      "primitives": [
        {
          "attributes": {
            "NORMAL": 17,
            "POSITION": 16,
            "TANGENT": 18,
            "TEXCOORD_0": 19
          },
          "indices": 20,
          "material": 1,
          "mode": 4
        }
      ]
    },
    {
      "primitives": [
        {
          "attributes": {
            "NORMAL": 22,
            "POSITION": 21,
            "TANGENT": 23,
            "TEXCOORD_0": 24
          },
          "indices": 25,
          "material": 1,
          "mode": 4
        }
      ]
    },
    {
      "primitives": [
        {
          "attributes": {
            "NORMAL": 27,
            "POSITION": 26,
            "TANGENT": 28,
            "TEXCOORD_0": 29
          },
          "indices": 30,
          "material": 1,
          "mode": 4
        }
      ]
    }
  ],
  "nodes": [
    {
      "children": [
        1
      ],
      "name": "RootNode (gltf orientation matrix)",
      "rotation": [
        -0.70710678118654746,
        -0,
        -0,
        0.70710678118654757
      ]
    },
    {
      "children": [
        2
      ],
      "name": "RootNode (model correction matrix)"
    },
    {
      "children": [
        3,
        4,
        5,
        6,
        7,
        8,
        9
      ],
      "name": "a_light_bulb_205.obj.cleaner.materialmerger.gles"
    },
    {
      "mesh": 0,
      "name": ""
    },
    {
      "mesh": 1,
      "name": ""
    },
    {
      "mesh": 2,
      "name": ""
    },
    {
      "mesh": 3,
      "name": ""
    },
    {
      "mesh": 4,
      "name": ""
    },
    {
      "mesh": 5,
      "name": ""
    },
    {
      "mesh": 6,
      "name": ""
    }
  ],
  "samplers": [
    {
      "magFilter": 9729,
      "minFilter": 9987,
      "wrapS": 10497,
      "wrapT": 10497
    }
  ],
  "scene": 0,
  "scenes": [
    {
      "name": "OSG_Scene",
      "nodes": [
        0
      ]
    }
  ],
  "textures": [
    {
      "sampler": 0,
      "source": 0
    },
    {
      "sampler": 0,
      "source": 1
    },
    {
      "sampler": 0,
      "source": 2
    }
  ]
}

